<svg id="Layer_1" enable-background="new 0 0 512 512" height="512" viewBox="0 0 512 512" width="512" xmlns="http://www.w3.org/2000/svg"><g><g><path d="m482 116.001h-126v-30.002c0-27.57-22.43-50-50-50h-100c-27.57 0-50 22.43-50 50v30.001h-126c-16.542 0-30 13.458-30 30v300c0 16.542 13.458 30 30 30h452c16.542 0 30-13.458 30-30v-300c0-16.542-13.458-29.999-30-29.999zm-306-.001v-30.001c0-16.542 13.458-30 30-30h100c16.542 0 30 13.458 30 30v30.001h-20v-30c0-5.523-4.477-10-10-10h-100c-5.523 0-10 4.477-10 10v30zm120 .001h-80v-20h80v20c0-.001 0 0 0 0zm-266 20h26c0 5.523 4.477 10 10 10h60c5.523 0 10-4.477 10-10h240.003c0 5.523 4.477 10 10 10h59.999c5.523 0 10-4.477 10-10h26c5.514 0 10 4.486 10 10v110.004h-196.002c-5.523 0-10 4.477-10 10v20c0 16.542-13.458 30-30 30s-30-13.458-30-30v-20c0-5.523-4.477-10-10-10h-196v-110.005c0-5.513 4.486-9.999 10-9.999zm452 320h-452c-5.514 0-10-4.486-10-10v-10h190.997c5.523 0 10-4.477 10-10s-4.477-10-10-10h-190.997v-139.996h186v10c0 27.57 22.43 50 50 50s50-22.43 50-50v-10h186v139.995h-191.003c-5.523 0-10 4.477-10 10s4.477 10 10 10h191.003v10c0 5.515-4.485 10.001-10 10.001z"/><path d="m256.004 296.005c5.523 0 10-4.477 10-10s-4.477-10-10-10h-.007c-5.523 0-9.997 4.477-9.997 10s4.481 10 10.004 10z"/><path d="m256 416h-.007c-5.523 0-9.996 4.477-9.996 10s4.48 10 10.003 10 10-4.477 10-10-4.477-10-10-10z"/></g></g></svg>