<svg xmlns="http://www.w3.org/2000/svg" style="display:none"><symbol id="back-btn" viewBox="0 0 512 512"><path d="M472.747 190.933H233.814l46.08-46.08c15.36-15.36 15.36-40.96 0-56.32l-35.84-37.547c-15.36-15.36-40.96-15.36-56.32 0L11.947 226.772C5.12 235.306 0 245.546 0 255.786c0 11.947 3.413 22.186 11.947 30.72l175.787 174.08c6.827 6.827 17.067 11.947 29.013 11.947 10.24 0 20.48-3.413 27.307-11.947l35.84-35.84c15.36-15.36 15.36-40.96 0-56.32L230.4 320.64h242.347c22.186 0 39.253-18.774 39.253-40.96v-49.493c0-22.187-17.067-39.254-39.253-39.254zm6.826 88.747h-1.706c0 3.413-3.413 6.827-5.12 6.827H189.44c-6.827 0-13.653 3.413-15.36 10.24-3.413 6.827-1.707 13.653 3.413 18.774l78.507 76.8c1.707 1.707 1.707 5.12 0 8.534l-35.84 35.84c-1.707 1.707-5.12 3.413-8.534 0L35.84 260.906c-1.706-1.706-1.706-3.413-1.706-5.119s0-3.413 1.706-5.12L211.627 74.88c1.707-1.706 3.413-1.706 3.413-1.706 1.707 0 3.413 0 3.413 1.706L256 110.719c1.707 1.706 1.707 6.827 0 8.533l-75.093 76.8c-5.12 5.12-6.827 11.946-3.413 18.774 3.413 6.827 8.534 10.24 15.36 10.24h281.6c1.706 0 5.12 0 5.12 3.413v51.201z"/></symbol><symbol id="blog" viewBox="0 0 512 512"><path d="M488 16H24a8 8 0 0 0-8 8v464a8 8 0 0 0 8 8h464a8 8 0 0 0 8-8V24a8 8 0 0 0-8-8zM32 32h448v48H32zm0 448V96h448v384z"/><circle cx="120" cy="56" r="8"/><circle cx="88" cy="56" r="8"/><circle cx="56" cy="56" r="8"/><path d="M456 48h-16a8 8 0 0 0 0 16h16a8 8 0 0 0 0-16zM440 128H72a8 8 0 0 0-8 8v160a8 8 0 0 0 8 8h368a8 8 0 0 0 8-8V136a8 8 0 0 0-8-8zM123.314 288l30.613-30.613 35.1 14.041a8 8 0 0 0 8.628-1.771l43.363-43.363 66.542 44.362a8 8 0 0 0 7.409.772l35.5-14.2L386.374 288zM432 288h-21.04l-53.753-46.074a8 8 0 0 0-8.178-1.354l-36.093 14.437-68.5-45.665a8 8 0 0 0-10.095 1l-44.27 44.27-35.1-14.041a8 8 0 0 0-8.628 1.771L100.687 288H80V144h352zM72 352h96a8 8 0 0 0 0-16H72a8 8 0 0 0 0 16z"/><path d="M312 224a24 24 0 1 0-24-24 24.027 24.027 0 0 0 24 24zm0-32a8 8 0 1 1-8 8 8.009 8.009 0 0 1 8-8zM232 384H72a8 8 0 0 0 0 16h160a8 8 0 0 0 0-16zM232 432H72a8 8 0 0 0 0 16h160a8 8 0 0 0 0-16zM440 384H280a8 8 0 0 0 0 16h160a8 8 0 0 0 0-16zM440 432H280a8 8 0 0 0 0 16h160a8 8 0 0 0 0-16z"/></symbol><symbol id="briefcase" viewBox="0 0 512 512"><path d="M482 116.001H356V85.999c0-27.57-22.43-50-50-50H206c-27.57 0-50 22.43-50 50V116H30c-16.542 0-30 13.458-30 30v300c0 16.542 13.458 30 30 30h452c16.542 0 30-13.458 30-30V146c0-16.542-13.458-29.999-30-29.999zM176 116V85.999c0-16.542 13.458-30 30-30h100c16.542 0 30 13.458 30 30V116h-20V86c0-5.523-4.477-10-10-10H206c-5.523 0-10 4.477-10 10v30zm120 .001h-80v-20h80v20c0-.001 0 0 0 0zm-266 20h26c0 5.523 4.477 10 10 10h60c5.523 0 10-4.477 10-10h240.003c0 5.523 4.477 10 10 10h59.999c5.523 0 10-4.477 10-10h26c5.514 0 10 4.486 10 10v110.004H296c-5.523 0-10 4.477-10 10v20c0 16.542-13.458 30-30 30s-30-13.458-30-30v-20c0-5.523-4.477-10-10-10H20V146c0-5.513 4.486-9.999 10-9.999zm452 320H30c-5.514 0-10-4.486-10-10v-10h190.997c5.523 0 10-4.477 10-10s-4.477-10-10-10H20V276.005h186v10c0 27.57 22.43 50 50 50s50-22.43 50-50v-10h186V416H300.997c-5.523 0-10 4.477-10 10s4.477 10 10 10H492v10c0 5.515-4.485 10.001-10 10.001z"/><path d="M256.004 296.005c5.523 0 10-4.477 10-10s-4.477-10-10-10h-.007c-5.523 0-9.997 4.477-9.997 10s4.481 10 10.004 10zM256 416h-.007c-5.523 0-9.996 4.477-9.996 10s4.48 10 10.003 10 10-4.477 10-10-4.477-10-10-10z"/></symbol><symbol id="contact" viewBox="-17 -101 560 560"><path d="M462.5-5.582h-400C27.988-5.57.016 22.406 0 56.918v233.371c.016 34.512 27.988 62.492 62.5 62.5h400c34.512-.008 62.484-27.988 62.5-62.5V56.918c-.016-34.512-27.988-62.488-62.5-62.5zm-400 25h400c18.004.047 33.453 12.824 36.875 30.496L262.5 181.918 25.625 49.914c3.422-17.672 18.871-30.45 36.875-30.496zm400 308.25h-400c-20.684-.063-37.441-16.816-37.5-37.5v-212l231.375 128.996a13.17 13.17 0 0 0 6.125 1.629c2.152.023 4.266-.54 6.125-1.629L500 78.168v212c-.016 20.703-16.797 37.48-37.5 37.5zm0 0"/></symbol><symbol id="home" viewBox="0 0 463.937 463.937"><path d="M460.414 216.518l-85.6-73.1c.1-.5.2-1 .3-1.6v-95.6c-.1-5.7-4.6-10.3-10.3-10.5h-47.8c-5.5 0-10 4.9-10 10.5v39.6l-68.5-58.4c-3.7-3.2-9.2-3.2-13 0l-221.9 189c-4.3 3.5-4.8 9.8-1.3 14.1s9.8 4.8 14.1 1.3l.2-.2 215.4-183.4 77.1 65.7 46.1 39.2 92.3 78.6c4.2 3.6 10.5 3.1 14.1-1.1 3.5-4.2 3-10.5-1.2-14.1zm-105.4-90l-28-23.6v-47.1h28v70.7z"/><path d="M416.314 236.718l-28.1-24-149.7-127.9c-3.7-3.2-9.2-3.2-13 0l-149.7 127.9-28.1 24c-4.2 3.6-4.7 9.9-1.1 14.1 3.5 4.2 9.7 4.7 13.8 1.2l.1-.1 12.5-10.8v187.5c.1 5.6 4.7 10.2 10.3 10.3h297.3c5.6-.1 10.2-4.6 10.3-10.3v-187.5l12.5 10.8c1.8 1.5 4 2.4 6.4 2.4 2.9 0 5.7-1.3 7.6-3.5 3.7-4.3 3.1-10.6-1.1-14.1zm-144.3 182.1h-80v-108h80v108zm20 0v-117.7c0-5.5-4.1-10.3-9.6-10.3h-100.8c-5.5 0-9.6 4.8-9.6 10.3v117.7h-79v-194.8l139-118.4 139 118.4v194.8h-79z"/></symbol><symbol id="linkedin" viewBox="0 0 512 512"><path d="M69.12 4.267c-18.773 0-35.84 6.827-48.64 19.627C6.827 37.547 0 54.613 0 72.533c0 18.773 7.68 35.84 20.48 48.64 12.8 12.8 30.72 20.48 47.787 19.627h1.707c17.067 0 33.28-6.827 46.08-19.627 12.8-12.8 20.48-29.867 20.48-48.64.853-17.92-6.827-34.987-19.627-47.787C104.107 11.093 87.04 4.267 69.12 4.267zm34.987 104.96c-9.387 9.387-22.187 15.36-35.84 14.507-12.8 0-26.453-5.12-35.84-14.507-10.24-9.387-15.36-23.04-15.36-36.693s5.12-26.453 15.36-36.693c9.387-9.387 22.187-14.507 36.693-14.507 12.8 0 25.6 5.12 34.987 14.507 10.24 10.24 15.36 23.04 15.36 36.693s-5.12 27.306-15.36 36.693zM102.4 157.867H33.28c-13.653 0-24.747 11.093-24.747 25.6v298.667c0 13.653 11.947 25.6 25.6 25.6H102.4c13.653 0 25.6-11.947 25.6-24.747v-299.52c0-13.654-11.947-25.6-25.6-25.6zm8.533 325.12c0 4.267-4.267 7.68-8.533 7.68H34.133c-4.267 0-8.533-4.267-8.533-8.533V183.467c0-4.267 3.413-8.533 7.68-8.533h69.12c4.267 0 8.533 4.267 8.533 8.533v299.52zM392.533 149.333h-17.92c-33.28 0-64.853 14.507-85.333 37.547v-11.947c0-8.533-8.533-17.067-17.067-17.067H186.88c-7.68 0-17.067 6.827-17.067 16.213v318.293c0 9.387 9.387 15.36 17.067 15.36h93.867c7.68 0 17.067-5.973 17.067-15.36v-184.32c0-28.16 20.48-50.347 46.933-50.347 13.653 0 26.453 5.12 35.84 14.507 8.533 7.68 11.947 19.627 11.947 34.987v183.467c0 8.533 8.533 17.067 17.067 17.067h85.333c8.533 0 17.067-8.533 17.067-17.067v-220.16C512 202.24 459.947 149.333 392.533 149.333zm102.4 340.48l-.853.853h-83.627L409.6 307.2c0-20.48-5.12-35.84-16.213-46.933-12.8-12.8-29.867-19.627-47.787-19.627-35.84.853-64 29.867-64 67.413v182.613h-93.867V174.933h84.48l.853.853v53.76l23.04-23.04.853-.853c17.067-23.893 46.933-39.253 78.507-39.253h17.92c57.173 0 101.547 46.08 101.547 104.107v219.306z"/></symbol><symbol id="patient" viewBox="0 0 64 64"><g data-name="patient information-information-record-computer-data"><path d="M57 2H7a5 5 0 0 0-5 5v38a5 5 0 0 0 5 5h19v6h-6a3.009 3.009 0 0 0-3 3v2a1 1 0 0 0 1 1h28a1 1 0 0 0 1-1v-2a3.009 3.009 0 0 0-3-3h-6v-6h19a5 5 0 0 0 5-5V7a5 5 0 0 0-5-5zM44 58a1 1 0 0 1 1 1v1H19v-1a1 1 0 0 1 1-1zm-16-2v-6h8v6zm32-11a3.009 3.009 0 0 1-3 3H7a3.009 3.009 0 0 1-3-3v-3h56zm0-5H4V7a3.009 3.009 0 0 1 3-3h50a3.009 3.009 0 0 1 3 3z"/><path d="M54 44h2v2h-2zM50 44h2v2h-2zM33 8H9a1 1 0 0 0-1 1v26a1 1 0 0 0 1 1h24a1 1 0 0 0 1-1V9a1 1 0 0 0-1-1zm-5 26H14v-3a5 5 0 0 1 5-5h4a5 5 0 0 1 5 5zm-5.09-15.98l2.09.7V21a3.009 3.009 0 0 1-3 3h-2a3.009 3.009 0 0 1-3-3v-2.13zm-5.89-1.18A2.988 2.988 0 0 1 20 14h2a3 3 0 0 1 2.96 2.6l-1.64-.55a1.032 1.032 0 0 0-.46-.04zM32 34h-2v-3a7.019 7.019 0 0 0-4.43-6.51A4.98 4.98 0 0 0 27 21v-4a5 5 0 0 0-5-5h-2a5 5 0 0 0-5 5v4a4.98 4.98 0 0 0 1.43 3.49A7.019 7.019 0 0 0 12 31v3h-2V10h22zM37 36h18a1 1 0 0 0 1-1v-4a1 1 0 0 0-1-1H37a1 1 0 0 0-1 1v4a1 1 0 0 0 1 1zm1-4h16v2H38zM36 8h4v2h-4zM42 8h14v2H42zM36 14h4v2h-4zM42 14h14v2H42zM36 20h4v2h-4zM42 20h14v2H42zM36 26h4v2h-4zM42 26h14v2H42z"/></g></symbol><symbol id="skype" viewBox="0 0 512 512"><path d="M361.473 512c-22.453 0-44.696-4.977-64.762-14.441-14.27 2.34-26.543 3.441-38.191 3.441C123.14 501 13 392.191 13 258.45c0-13.024 1.293-26.575 3.937-41.216A147.132 147.132 0 0 1 0 148.7C0 66.707 67.54 0 150.559 0c25.836 0 51.078 6.523 73.468 18.93 10.2-1.313 21.36-1.93 34.493-1.93 65.417 0 126.828 25.05 172.917 70.531C477.586 133.074 503 193.777 503 258.457c0 17.137-1.168 31.672-3.648 45.113C507.75 322.332 512 342.39 512 363.3c0 81.993-67.527 148.7-150.527 148.7zm-58.446-56.195l6.145 3.265c15.898 8.457 33.984 12.93 52.3 12.93C422.419 472 472 423.238 472 363.3c0-16.995-3.84-33.187-11.418-48.124l-3.25-6.414 1.574-7.016C461.7 289.31 463 275.555 463 258.457 463 147.375 371.27 57 258.52 57c-14.079 0-25.258.781-35.192 2.465l-7.465 1.262-6.43-3.997C191.825 45.785 171.466 40 150.56 40 89.598 40 40 88.762 40 148.7c0 19.335 5.234 38.316 15.137 54.89l3.988 6.68-1.57 7.62C54.488 232.73 53 245.997 53 258.45 53 370.136 145.195 461 258.52 461c10.949 0 22.917-1.254 37.667-3.945zM385 310.863c0-14.383-2.84-26.75-8.504-36.758-5.664-9.964-13.629-18.308-23.648-24.82-9.852-6.375-21.942-11.836-35.907-16.305-13.804-4.378-29.414-8.41-46.394-12.039-13.438-3.086-23.215-5.488-29.043-7.086-5.695-1.558-11.36-3.77-16.883-6.511-5.324-2.645-9.516-5.828-12.531-9.422-2.813-3.43-5.09-7.39-5.09-12.14 0-7.762 5.164-14.302 13.934-20 9.074-5.93 21.3-8.384 36.34-8.384 16.175 0 28 2.184 35.038 7.504 7.27 5.461 13.602 13.258 18.825 23.16 4.527 7.735 8.605 13.13 12.531 16.583 4.223 3.695 10.32 5.355 18.09 5.355 8.543 0 15.812-2.777 21.539-8.71 5.726-5.903 9.703-12.685 9.703-20.138 0-7.73-3.305-15.73-7.66-23.77-4.324-7.972-11.153-15.628-20.399-22.816-9.148-7.125-20.832-12.886-34.636-17.156-13.766-4.277-30.254-6.41-49.004-6.41-23.418 0-44.149 3.215-61.535 9.625-17.653 6.477-31.383 15.973-40.73 28.11-9.477 12.234-15.036 26.44-15.036 42.21 0 16.547 5.32 30.578 14.328 41.801 8.883 11.024 20.996 19.836 36.074 26.211 14.703 6.207 33.188 11.695 54.965 16.34 16.012 3.363 28.969 6.55 38.52 9.5 9.11 2.816 16.68 6.953 22.41 12.273 5.426 5.055 8.398 11.532 8.398 19.77 0 10.414-5.422 18.957-15.87 26.043C292.14 350.137 277.933 353 260.584 353c-12.632 0-22.878-.996-30.483-4.594-7.57-3.527-13.5-8.11-17.59-13.496-4.317-5.664-8.367-12.773-12.086-21.258-3.32-7.757-7.434-13.8-12.293-17.863-5.059-4.242-11.281-6.789-18.485-6.789-8.77 0-16.14 3.121-21.906 8.48-5.793 5.422-8.742 12.063-8.742 19.696 0 12.238 4.52 24.922 13.465 37.672 8.777 12.644 20.43 22.918 34.531 30.484C206.691 395.742 231.98 401 262.125 401c25.086 0 47.164-3.863 65.547-11.453 18.59-7.66 32.922-18.477 42.637-32.14 9.75-13.7 14.671-29.36 14.691-46.544zm0 0"/></symbol><symbol id="telegram" viewBox="0 -39 512.00011 512"><path d="M504.094 11.86C497.84 4.21 488.473 0 477.714 0c-5.847 0-12.042 1.23-18.41 3.664L25.907 169.105c-23 8.778-26.097 21.95-25.898 29.02s4.039 20.047 27.5 27.512c.14.043.281.086.422.125l89.898 25.726 48.617 139.024c6.63 18.953 21.508 30.726 38.836 30.726 10.926 0 21.672-4.578 31.078-13.234l55.606-51.2 80.652 64.942c.008.008.02.012.028.02l.765.617.215.168c8.965 6.953 18.75 10.625 28.309 10.629h.003c18.676 0 33.547-13.825 37.88-35.215l71.011-350.64c2.852-14.075.461-26.669-6.734-35.466zM147.902 246.601l173.442-88.606L213.348 272.75a14.975 14.975 0 0 0-3.641 6.684l-20.824 84.351zm68.133 139.332c-.719.66-1.441 1.25-2.164 1.793l19.32-78.25 35.145 28.3zm265.39-344.567l-71.01 350.645c-.685 3.355-2.868 11.164-8.481 11.164-2.774 0-6.258-1.512-9.825-4.258l-91.39-73.586a.173.173 0 0 0-.043-.031l-54.38-43.79 156.177-165.949a15 15 0 0 0-17.746-23.636L127.859 223.152l-91.12-26.07 433.265-165.39c3.66-1.399 6.215-1.692 7.71-1.692.919 0 2.552.11 3.157.855.797.973 1.813 4.29.555 10.512zm0 0"/></symbol><symbol id="training" viewBox="0 0 60 58"><path d="M30 26c-.146 0-.291-.032-.426-.095l-17-8a1.001 1.001 0 0 1 0-1.81l17-8a1 1 0 0 1 .852 0l17 8a1.001 1.001 0 0 1 0 1.81l-17 8c-.135.063-.28.095-.426.095zm-14.651-9L30 23.895 44.651 17 30 10.105z"/><path d="M30 34c-.153 0-.307-.035-.447-.105l-12-6A1.001 1.001 0 0 1 17 27v-7.647a1 1 0 0 1 1.425-.905L30 23.895l11.574-5.447a1 1 0 0 1 1.426.905V27c0 .379-.214.725-.553.895l-12 6c-.14.07-.294.105-.447.105zm-11-7.618l11 5.5 11-5.5v-5.453l-10.574 4.976a1 1 0 0 1-.852 0L19 20.929zM47 18H30a1 1 0 0 1 0-2h17a1 1 0 0 1 0 2z"/><path d="M47 27a1 1 0 0 1-1-1v-9a1 1 0 0 1 2 0v9a1 1 0 0 1-1 1zM30 20a1 1 0 0 1-1-1v-4a1 1 0 0 1 2 0v4a1 1 0 0 1-1 1z"/><path d="M44.999 30a1 1 0 0 1-.831-1.555l2-3a1 1 0 0 1 1.664 1.11l-2 3a1 1 0 0 1-.833.445z"/><path d="M49.001 30a1 1 0 0 1-.833-.445l-2-3a1.001 1.001 0 0 1 1.664-1.11l2 3A1.001 1.001 0 0 1 49.001 30zM30 29a1 1 0 0 1-1-1v-3a1 1 0 0 1 2 0v3a1 1 0 0 1-1 1z"/><path d="M59 38H1a1 1 0 0 1-1-1V4.001A4.006 4.006 0 0 1 4.001 0h51.998A4.006 4.006 0 0 1 60 4.001V37a1 1 0 0 1-1 1zM2 36h56V4.001A2.002 2.002 0 0 0 55.999 2H4.001A2.002 2.002 0 0 0 2 4.001z"/><path d="M55.999 46H4.001A4.006 4.006 0 0 1 0 41.999V37a1 1 0 0 1 1-1h58a1 1 0 0 1 1 1v4.999A4.006 4.006 0 0 1 55.999 46zM2 38v3.999C2 43.103 2.897 44 4.001 44h51.998A2.002 2.002 0 0 0 58 41.999V38z"/><path d="M33 42h-6a1 1 0 0 1 0-2h6a1 1 0 0 1 0 2zM55 38H5a1 1 0 0 1-1-1V5a1 1 0 0 1 1-1h50a1 1 0 0 1 1 1v32a1 1 0 0 1-1 1zM6 36h48V6H6zM43 58H17c-1.654 0-3-1.346-3-3s1.346-3 3-3h26c1.654 0 3 1.346 3 3s-1.346 3-3 3zm-26-4c-.551 0-1 .449-1 1s.449 1 1 1h26c.551 0 1-.449 1-1s-.449-1-1-1z"/><path d="M41 54H19a1 1 0 0 1 0-2c3.318 0 5-2.355 5-7a1 1 0 0 1 1-1h10a1 1 0 0 1 1 1c0 4.645 1.682 7 5 7a1 1 0 0 1 0 2zm-17.129-2H36.13c-1.232-1.364-1.957-3.395-2.102-6h-8.055c-.146 2.605-.87 4.636-2.102 6z"/></symbol></svg>